<svg xmlns="http://www.w3.org/2000/svg" xmlns:xlink="http://www.w3.org/1999/xlink" viewBox="0 0 212.185 199.531"><defs><style>.a{fill:#f0b90b;}.b{fill:#fffdfa;}.c{fill:none;stroke:#191326;stroke-miterlimit:6.966;stroke-width:5.224px;opacity:0.1;isolation:isolate;}.d{fill:url(#a);stroke:url(#b);}.e{fill:#e39353;}.f{fill:#964c2e;}.g{fill:#cd89a4;}.h{fill:#e7e7e7;}.i,.j{fill:#2a2a2a;}.j{stroke:#000;stroke-miterlimit:10;stroke-width:2px;}.k{fill:#f6ac37;}</style><linearGradient id="a" x1="145.762" y1="2.078" x2="145.762" y2="151.798" gradientTransform="matrix(1, 0, 0, -1, -8.776, 201.109)" gradientUnits="userSpaceOnUse"><stop offset="0" stop-color="#7f1800"/><stop offset="0.853"/></linearGradient><linearGradient id="b" x1="70.563" y1="76.938" x2="220.961" y2="76.938" xlink:href="#a"/></defs><path class="a" d="M8.776,51.391a50.5,50.5,0,1,1,50.5,50.5A50.5,50.5,0,0,1,8.776,51.391Z" transform="translate(-8.776 -0.891)"/><path class="b" d="M40.443,51.391l-7.727,7.78-7.78-7.78,7.78-7.781ZM59.276,32.558,72.583,45.865l7.781-7.78L67.058,24.831l-7.782-7.78L38.242,38.083l7.78,7.781ZM85.835,43.61l-7.726,7.781,7.78,7.78,7.727-7.78ZM59.276,70.224,45.97,56.916,38.243,64.7,59.276,85.731,80.362,64.644l-7.78-7.726Zm0-11.053,7.78-7.78-7.78-7.781L51.5,51.391Z" transform="translate(-8.776 -0.891)"/><path class="c" d="M11.388,51.391A47.888,47.888,0,1,1,59.276,99.279,47.888,47.888,0,0,1,11.388,51.391Z" transform="translate(-8.776 -0.891)"/><ellipse class="d" cx="136.986" cy="124.172" rx="74.699" ry="74.86"/><path class="e" d="M110.571,114.649l-.483-13.549s1.2,11.229.483,13.549a58.538,58.538,0,0,1,11.757-5.546h0s-8.577-28-10.954-24.146C106.162,93.385,93.3,132.985,93.3,133A45.654,45.654,0,0,1,110.571,114.649Z" transform="translate(-8.776 -0.891)"/><path class="e" d="M93.3,133l17.269-18.336A45.559,45.559,0,0,0,93.3,133Z" transform="translate(-8.776 -0.891)"/><path class="e" d="M162.9,162.86a17.667,17.667,0,0,1-12.974-26.213,19.869,19.869,0,0,1-5.936-11.964l-.035-.333a19.771,19.771,0,0,1,1.194-9.093,20.065,20.065,0,0,1,6.9-9.047,63.429,63.429,0,0,0-16.385-.138,65.178,65.178,0,0,0-13.33,3.031,58.281,58.281,0,0,0-11.757,5.546L93.3,133A32.26,32.26,0,0,0,90.088,151.1c.045.424.114.849.183,1.274a12.795,12.795,0,0,1,19.381,9.392,13.046,13.046,0,0,1,.092,1.493,8.683,8.683,0,0,1-.39,14.42,48.887,48.887,0,0,0,4.787,2.354,62.545,62.545,0,0,0,60.015-7.268A12.776,12.776,0,0,1,162.9,162.86Z" transform="translate(-8.776 -0.891)"/><path class="e" d="M110.571,114.649c.712-2.32-.483-13.549-.483-13.549Z" transform="translate(-8.776 -0.891)"/><path class="f" d="M179.931,110.618c.138.184.264.368.39.563l16.5-8.749S186.969,106.634,179.931,110.618Z" transform="translate(-8.776 -0.891)"/><path class="f" d="M179.4,134.718a.215.215,0,0,1,.046-.057l-.127-.035C179.345,134.649,179.368,134.684,179.4,134.718Z" transform="translate(-8.776 -0.891)"/><path class="f" d="M167.783,110.756l12.71,8.623A45.1,45.1,0,0,0,167.783,110.756Z" transform="translate(-8.776 -0.891)"/><path class="f" d="M174.282,114.373l6.039-3.2c-.126-.184-.264-.379-.39-.563A36.065,36.065,0,0,0,174.282,114.373Z" transform="translate(-8.776 -0.891)"/><path class="f" d="M150.825,135.648c-.011-.126-.023-.241-.046-.367a15.1,15.1,0,0,0-.861,1.366c.379.368.781.724,1.194,1.068C151.009,137.026,150.905,136.337,150.825,135.648Z" transform="translate(-8.776 -0.891)"/><path class="f" d="M162.9,162.86c.344.046.7.08,1.044.114-.424-.436-.849-.872-1.262-1.331C162.743,162.056,162.812,162.469,162.9,162.86Z" transform="translate(-8.776 -0.891)"/><path class="f" d="M190.356,137.818S213.733,92.259,206.189,93.3c-8.76,1.217-22.24,8.152-30.679,12.894-4.627,2.606-7.738,4.547-7.738,4.547A54.7,54.7,0,0,0,156.554,107c-1.481-.322-2.985-.6-4.512-.8a19.956,19.956,0,0,0-8.094,18.141c.011.115.023.218.034.333a19.85,19.85,0,0,0,5.936,11.964,17.679,17.679,0,0,0,12.974,26.224,12.789,12.789,0,0,0,11.241,9.908c.493-.379.987-.758,1.458-1.148a43.061,43.061,0,0,0,12.067-15.133,32.228,32.228,0,0,0,2.87-17.383c-.046-.425-.1-.849-.172-1.286Z" transform="translate(-8.776 -0.891)"/><path class="f" d="M109.744,163.262a12.8,12.8,0,0,0-14.306-12.676,12.7,12.7,0,0,0-5.167,1.791,32.191,32.191,0,0,0,6.43,14.6,39.065,39.065,0,0,0,7.153,7.084,46.041,46.041,0,0,0,5.5,3.628,8.7,8.7,0,0,0,.39-14.432Z" transform="translate(-8.776 -0.891)"/><path class="g" d="M129.8,156.694l-6.05,2.285s2,4.432,5.419,4.26a9.394,9.394,0,0,0,5.959-2.32C135.463,160.506,129.8,156.694,129.8,156.694Z" transform="translate(-8.776 -0.891)"/><ellipse class="h" cx="137.314" cy="155.32" rx="7.027" ry="5.201" transform="translate(-26.199 16.459) rotate(-6.8)"/><ellipse class="h" cx="124.073" cy="153.877" rx="5.201" ry="6.074" transform="translate(-50.897 259.999) rotate(-83.898)"/><path class="g" d="M110.49,113.96l-.516-13.813s-3.893,2.905-7.211,17.992C101.466,124.029,110.49,113.96,110.49,113.96Z" transform="translate(-8.776 -0.891)"/><path class="g" d="M176.888,113.615s6.533,3.847,11.964,13.158c0,0,12.113-26.075,8.5-24.616C182.181,108.253,176.888,113.615,176.888,113.615Z" transform="translate(-8.776 -0.891)"/><path class="i" d="M175.373,96.186" transform="translate(-8.776 -0.891)"/><path d="M175.373,96.508a.333.333,0,0,0,0-.666.333.333,0,0,0,0,.666Z" transform="translate(-8.776 -0.891)"/><path class="i" d="M175.373,96.186a16.65,16.65,0,0,1,.907,3.755,16.334,16.334,0,0,1-.23,5.3" transform="translate(-8.776 -0.891)"/><path d="M175.051,96.267a16.371,16.371,0,0,1,.666,8.886c-.08.414.551.6.643.172a17.069,17.069,0,0,0-.666-9.231c-.149-.4-.792-.229-.643.173Z" transform="translate(-8.776 -0.891)"/><path class="j" d="M175.889,105.257l-7.072,4.856s-8.979-4.73-22.757-4.145a143.644,143.644,0,0,0-23.468,2.8l-2.7.631-.7-.218a16.279,16.279,0,0,1-4.615-9.552,12.179,12.179,0,0,1-.1-2.412l.012-.344a5.312,5.312,0,0,0,9.357-1.481l.15-.563c.872-3.019,2.422-7.738,3.306-10.356l.391-1.252a17,17,0,0,1,32.32.9l.092.344c.046.161,3.364,12.458,4.731,13.778l.137.184a5.953,5.953,0,0,0,10.391-2.239" transform="translate(-8.776 -0.891)"/><path class="k" d="M115.163,101.077c2.63.976,6.143,1.011,8.485-.677a6.968,6.968,0,0,0,2.308-2.813c.712-1.573,1.228-3.261,1.8-4.891.895-2.561,1.756-5.133,2.652-7.693.321-.918.643-1.825,1-2.721.069-.184.137-.356.218-.54.126-.321-.161.368-.023.058l.1-.241c.138-.31.276-.609.437-.9a4.389,4.389,0,0,1,.39-.631c.207-.287-.264.333-.08.1.045-.069.1-.126.149-.184a12.538,12.538,0,0,1,1-1.079c.241-.23.493-.459.746-.677.092-.081.609-.483.2-.161.195-.149.391-.287.6-.425a17.457,17.457,0,0,1,2.721-1.5c.425-.2-.31.126.127-.058.137-.057.275-.1.413-.16.287-.115.574-.207.873-.31a21.658,21.658,0,0,1,2.1-.563,13.907,13.907,0,0,1,4.041-.367l.471.034c.5.046-.333-.057.172.023.3.046.6.1.884.172a12.16,12.16,0,0,1,1.8.563c.448.172-.3-.138.126.057l.379.173c.253.114.494.252.735.378a15.449,15.449,0,0,1,1.481.93c.1.081.207.15.322.23.355.264-.265-.218.068.058l.586.482c.39.333.769.689,1.125,1.056.3.31.6.632.873.953l.379.448c.069.08.275.356-.035-.046l.207.275a13.846,13.846,0,0,1,1.159,1.895c.265.517.517,1.045.747,1.584.195.46-.126-.3.069.161.057.138.114.276.172.425q.207.5.379,1c.895,2.422,1.584,4.9,2.331,7.382a38.284,38.284,0,0,0,2.032,5.672,7.939,7.939,0,0,0,2.526,2.951,9.371,9.371,0,0,0,4.707,1.883c2.744.31,5.328-1.194,7.234-3.031a1.664,1.664,0,0,0,0-2.342,1.686,1.686,0,0,0-2.343,0,8.863,8.863,0,0,1-1.653,1.3,7.946,7.946,0,0,1-.884.459c.31-.137-.149.046-.172.058a5.043,5.043,0,0,1-.551.161c-.138.034-.276.057-.4.08-.448.08.356-.035-.092.011a5.641,5.641,0,0,1-.758.012c-.126,0-.241-.012-.367-.023-.414-.035.379.057-.035-.012-.264-.045-.516-.114-.781-.183a5.7,5.7,0,0,1-.608-.218c.482.2-.138-.081-.253-.138a11.279,11.279,0,0,1-1-.609c-.114-.08-.574-.436-.08-.046-.092-.069-.2-.149-.287-.229-.161-.127-.321-.253-.471-.391a3.944,3.944,0,0,1-.3-.321c.379.459.011,0-.081-.126a8.437,8.437,0,0,1-.585-1.091,2.982,2.982,0,0,1-.126-.287c-.161-.356.149.356-.012-.012-.092-.218-.172-.436-.253-.654-.2-.517-.367-1.045-.539-1.573-.781-2.377-1.424-4.788-2.182-7.165a36.651,36.651,0,0,0-2.985-7.176,17.456,17.456,0,0,0-3.042-3.754,18.024,18.024,0,0,0-6.017-3.869,15.172,15.172,0,0,0-8.462-.483,18.478,18.478,0,0,0-10.551,5.649,10.535,10.535,0,0,0-1.723,2.779c-.826,1.906-1.492,3.881-2.158,5.855-.815,2.389-1.63,4.777-2.469,7.142-.252.723-.516,1.447-.78,2.17-.046.138-.1.276-.15.413,0-.011-.241.609-.069.219a5.51,5.51,0,0,1-.378.723c-.058.092-.448.631-.173.275a5.129,5.129,0,0,1-.482.517c-.057.046-.115.1-.172.149-.3.253.3-.206-.012.012a5.443,5.443,0,0,1-.551.344.973.973,0,0,1-.195.092c-.333.161.356-.138.012,0a3.565,3.565,0,0,1-.494.161c-.161.046-.333.092-.505.126-.1.023-.195.035-.3.058-.367.057.4-.046.035-.012a9.7,9.7,0,0,1-2.079-.034c.6.069.081.011-.057-.012s-.3-.057-.448-.08c-.229-.046-.447-.1-.677-.161-.207-.057-.4-.115-.6-.184a1.656,1.656,0,0,0-2.032,1.16,1.629,1.629,0,0,0,1.136,1.986Z" transform="translate(-8.776 -0.891)"/><circle class="h" cx="133.966" cy="89.738" r="5.534"/><circle class="h" cx="133.071" cy="94.032" r="2.423"/><circle class="h" cx="134.839" cy="94.044" r="2.423"/><ellipse class="i" cx="140.529" cy="90.653" rx="1.906" ry="1.516" transform="translate(-12.184 174.901) rotate(-63.43)"/><ellipse class="i" cx="145.061" cy="90.661" rx="1.516" ry="1.906" transform="translate(-33.901 72.488) rotate(-26.206)"/><path d="M175.373,97.288a1.1,1.1,0,0,0,0-2.2,1.1,1.1,0,0,0,0,2.2Z" transform="translate(-8.776 -0.891)"/><path d="M174.305,96.473a15.567,15.567,0,0,1,.666,8.474,1.1,1.1,0,0,0,2.124.585,17.8,17.8,0,0,0-.666-9.644,1.124,1.124,0,0,0-1.355-.77,1.109,1.109,0,0,0-.769,1.355Z" transform="translate(-8.776 -0.891)"/><path d="M113.384,96.864a17.641,17.641,0,0,0,5.029,13.089c1,1.021,2.56-.54,1.561-1.562a15.42,15.42,0,0,1-4.386-11.527c.069-1.424-2.135-1.413-2.2,0Z" transform="translate(-8.776 -0.891)"/><path d="M113.533,97.426a6.532,6.532,0,0,0,7.98,2.136A6.388,6.388,0,0,0,124.44,96.8a16.39,16.39,0,0,0,1.045-3.1c.8-2.653,1.665-5.293,2.549-7.923.253-.746.494-1.492.723-2.25a14.1,14.1,0,0,1,1.585-3.2,15.894,15.894,0,0,1,25.684-1.47,15.742,15.742,0,0,1,3.031,5.913c.253.93.506,1.849.77,2.767a68.844,68.844,0,0,0,3.433,10.219,7.2,7.2,0,0,0,5.683,3.949,7.1,7.1,0,0,0,7.5-5.224,1.1,1.1,0,0,0-2.124-.585,4.846,4.846,0,0,1-8.542,1.756c-.069-.08-.126-.16-.195-.229-.149-.161.172.252-.012-.012a5.653,5.653,0,0,1-.378-.689c-.069-.137-.127-.275-.184-.413-.023-.046-.126-.3-.023-.046l-.1-.241q-.242-.585-.448-1.171c-.322-.873-.609-1.757-.9-2.641-.574-1.768-1.1-3.548-1.619-5.339-.252-.895-.5-1.791-.746-2.687a18.5,18.5,0,0,0-3.307-6.533,18.08,18.08,0,0,0-27.8-.62,17.82,17.82,0,0,0-3.57,6.327c-.7,2.239-1.47,4.455-2.182,6.694-.425,1.308-.827,2.629-1.217,3.949a6.347,6.347,0,0,1-1.171,2.595,4.252,4.252,0,0,1-6.476-.264,1.125,1.125,0,0,0-1.515-.39,1.088,1.088,0,0,0-.4,1.492Z" transform="translate(-8.776 -0.891)"/><path d="M184.1,127.37a33.555,33.555,0,0,1,2.216,4.271c-.2-.459.046.127.068.184.069.184.138.356.207.54.138.356.264.723.391,1.09.275.793.5,1.6.711,2.411.2.758.345,1.516.483,2.285.034.195.069.391.091.586.012.069.092.712.035.195.046.333.08.666.115,1.01a29.936,29.936,0,0,1,.126,3.365,31.7,31.7,0,0,1-.23,3.318c-.023.149-.08.631.012-.058-.023.127-.035.264-.058.391-.034.264-.08.528-.126.78-.1.563-.218,1.126-.356,1.688a31.588,31.588,0,0,1-.93,3.2c-.172.5-.356,1.01-.562,1.5-.058.16-.425,1.01-.138.344l-.379.861a38.078,38.078,0,0,1-3.422,5.936c-.321.459-.654.907-.987,1.355-.3.4.31-.39,0,0-.092.115-.172.218-.264.333-.207.264-.413.517-.632.769-.769.919-1.572,1.8-2.411,2.664s-1.745,1.711-2.663,2.514c-.448.391-.907.77-1.367,1.149-.229.183-.47.379-.7.562-.092.069-.5.391-.023.023-.161.126-.321.241-.482.368a55.406,55.406,0,0,1-6.476,4.156c-1.159.631-2.342,1.228-3.536,1.78-.287.137-.586.264-.873.4-.149.069-.3.127-.448.2-.091.046-.608.264-.068.034-.655.276-1.309.528-1.964.781a62.25,62.25,0,0,1-7.957,2.422c-1.389.322-2.79.6-4.2.839-.344.057-.689.114-1.033.16-.172.023-.345.046-.517.081-.585.08.482-.058-.1.011-.746.1-1.5.184-2.262.253a64.1,64.1,0,0,1-8.531.252c-1.378-.046-2.767-.149-4.133-.287-.322-.034-.655-.069-.976-.115-.161-.023-.322-.034-.482-.057-.563-.069.5.069-.058-.011-.7-.092-1.389-.207-2.078-.322a57.062,57.062,0,0,1-7.67-1.883c-1.217-.39-2.422-.827-3.6-1.3-.138-.058-.287-.115-.425-.173-.114-.045-.6-.252-.034-.011-.276-.115-.551-.241-.827-.356q-.9-.4-1.756-.827a47.706,47.706,0,0,1-6.281-3.7c-.471-.321-.93-.666-1.378-1.01-.4-.3.391.31,0,0-.114-.092-.218-.172-.333-.264l-.757-.62c-.9-.746-1.746-1.527-2.572-2.342s-1.585-1.642-2.32-2.515c-.172-.207-.344-.413-.516-.631-.081-.1-.172-.207-.253-.322-.3-.379.31.4.012.023-.356-.459-.689-.941-1.022-1.424-.632-.918-1.206-1.871-1.745-2.847-.253-.471-.494-.942-.735-1.424l-.345-.723c-.057-.126-.1-.241-.16-.367s-.31-.724-.035-.081a31,31,0,0,1-1.883-6.395c-.046-.264-.092-.528-.138-.8-.023-.138-.046-.264-.057-.4-.069-.493.069.54.011.046q-.1-.877-.172-1.756a32.9,32.9,0,0,1-.046-3.353c.023-.528.058-1.068.1-1.6.023-.264.057-.528.08-.792.012-.127.034-.264.046-.391-.092.724-.012.081.011-.068a28.718,28.718,0,0,1,.678-3.25c.275-1.079.62-2.135,1-3.18.092-.253.195-.505.287-.758.057-.161.413-1.01.138-.344.229-.54.47-1.068.734-1.6a38.422,38.422,0,0,1,3.56-5.89c.16-.23.333-.448.505-.678.3-.4-.31.391,0,0,.092-.115.172-.218.264-.333.379-.482.781-.953,1.183-1.423.792-.908,1.618-1.78,2.468-2.63.873-.861,1.78-1.688,2.721-2.468.459-.391.919-.758,1.389-1.125.092-.069.506-.391.023-.023.115-.092.242-.184.356-.276.287-.218.563-.425.85-.632a54.625,54.625,0,0,1,6.579-4.064c1.171-.62,2.377-1.194,3.582-1.734.149-.069.3-.126.448-.195.092-.046.609-.264.069-.034.3-.127.6-.253.895-.368.655-.264,1.321-.516,1.987-.758a62.559,62.559,0,0,1,8.037-2.307c1.4-.31,2.813-.563,4.237-.77.172-.023.344-.046.516-.08.586-.08-.482.057.1-.011.355-.046.723-.092,1.079-.127.827-.092,1.665-.172,2.491-.229a63.829,63.829,0,0,1,9.369-.023c.724.046,1.458.114,2.182.2.356.034.723.08,1.079.126.092.012.7.092.126.012l.712.1c1.47.218,2.917.494,4.363.815a55.467,55.467,0,0,1,6.637,1.941c.528.195,1.056.39,1.584.6.264.1.517.206.781.321.229.092.206.08-.069-.023.149.069.31.126.459.2,1.056.46,2.1.965,3.123,1.5a46.034,46.034,0,0,1,5.477,3.353c.425.3.849.62,1.263.941-.494-.378.184.15.287.23.207.161.4.333.6.494.827.689,1.63,1.412,2.4,2.17A2.208,2.208,0,1,0,182,117.829c-8.3-8.118-19.5-12.5-30.874-13.939a66.172,66.172,0,0,0-35.157,5.385c-9.243,4.156-17.6,10.827-22.929,19.53a35.084,35.084,0,0,0-4.317,27.131c2.446,9.335,8.99,16.993,16.981,22.171,8.991,5.821,19.841,8.542,30.473,8.726a65.523,65.523,0,0,0,32.917-8.14c8.611-4.823,16.27-12.056,20.449-21.1a35.858,35.858,0,0,0,3.353-13.744,33.7,33.7,0,0,0-4.249-17.349c-.252-.447-.516-.895-.78-1.331a2.182,2.182,0,1,0-3.766,2.2Z" transform="translate(-8.776 -0.891)"/><circle cx="153.818" cy="144.815" r="8.198"/><circle cx="99.097" cy="141.83" r="7.463"/><path d="M129.079,156.017a8.843,8.843,0,0,0,6.143,5.476c1.377.333,1.974-1.791.585-2.124a6.513,6.513,0,0,1-4.592-3.938,1.123,1.123,0,0,0-1.355-.769,1.093,1.093,0,0,0-.781,1.355Z" transform="translate(-8.776 -0.891)"/><path d="M142.7,156.5a6.531,6.531,0,0,1-6.889,2.859c-1.389-.3-1.975,1.825-.585,2.124a8.8,8.8,0,0,0,9.38-3.881c.758-1.194-1.148-2.3-1.906-1.1Z" transform="translate(-8.776 -0.891)"/><path d="M123.729,158.795a6.925,6.925,0,0,0,1.55,0,6.678,6.678,0,0,0,4.856-3.077s.781-2.778-3.2-5.752c0,0-1.447-2.526,3.571-2.388,5.27.137,5.786,3.387,3.559,3.616-3.892.4-3.927,4.536-3.927,4.536" transform="translate(-8.776 -0.891)"/><path d="M123.729,159.909a7.682,7.682,0,0,0,7-3.112,2.125,2.125,0,0,0,.5-.987c.391-2.836-1.63-5.19-3.742-6.8l.39.39c-.138-.229.092.253.023.069a.99.99,0,0,1-.058-.2c-.091-.333,0,.207-.011-.034V149.1c.011-.195-.057.3-.012.1.058-.321-.1.161.023-.069.035-.069.173-.218-.034.035a1.5,1.5,0,0,1,.138-.138c.172-.161-.207.149,0,0,.092-.058.2-.1.287-.149-.241.114.057-.012.092-.023a3.142,3.142,0,0,1,.321-.081,4.264,4.264,0,0,1,.632-.092,11.56,11.56,0,0,1,2.262.046,6.939,6.939,0,0,1,1.5.379,3.855,3.855,0,0,1,.447.218,1.909,1.909,0,0,1,.253.161c.161.1-.08-.08.138.115l.172.172c.184.195-.126-.2.011.012a.956.956,0,0,1,.1.183c.115.207-.081-.241-.012-.023a.923.923,0,0,1,.046.173c-.069-.322-.023-.161-.023-.058,0,.218.058-.287.012-.069-.058.276.092-.172.011-.011-.115.218.172-.149-.08.08.241-.206.1-.08.023-.034-.195.115.252-.092.023-.012a1.456,1.456,0,0,1-.207.058c-.275.069.39-.046-.08.011a5.828,5.828,0,0,0-1.1.218,5.4,5.4,0,0,0-3.606,4.1,5.63,5.63,0,0,0-.172,1.309,1.1,1.1,0,0,0,2.205,0c0-.092.011-.172.011-.264,0-.046.011-.092.011-.138.023-.206-.045.3-.011.069.023-.161.057-.31.092-.459s.08-.31.126-.459c.023-.081.058-.161.081-.241.1-.276-.1.206.023-.069.08-.173.172-.333.264-.506.046-.08.1-.16.16-.241.081-.1.081-.1.012-.011a1.686,1.686,0,0,1,.138-.149,2.543,2.543,0,0,1,.918-.689,5.848,5.848,0,0,1,1.424-.333,2.31,2.31,0,0,0,1.779-1.481c.724-1.849-1.32-3.273-2.767-3.8a10.657,10.657,0,0,0-4.076-.471,5.2,5.2,0,0,0-3.008.965,2.353,2.353,0,0,0-.654,2.583,2.655,2.655,0,0,0,1.033,1.229,7.325,7.325,0,0,1,1.906,2.331,1.234,1.234,0,0,1,.149.367,3.49,3.49,0,0,1,.138.471c.023.069.092.539.058.206.011.115.023.242.023.356,0,.138-.058.747.011.253-.023.161-.1.184-.011.046a5.641,5.641,0,0,1-5.374,2.4,1.111,1.111,0,0,0-1.1,1.1,1.232,1.232,0,0,0,1.16,1.125Z" transform="translate(-8.776 -0.891)"/><path d="M123.729,157.693a5.586,5.586,0,0,1-4.375-3.387,1.122,1.122,0,0,0-1.355-.769,1.1,1.1,0,0,0-.769,1.354,7.914,7.914,0,0,0,6.51,5.006c.6.081,1.1-.562,1.1-1.1a1.151,1.151,0,0,0-1.113-1.1Z" transform="translate(-8.776 -0.891)"/><path d="M134.556,159.863a5.557,5.557,0,0,1-9.76-1.355,1.123,1.123,0,0,0-1.354-.769,1.1,1.1,0,0,0-.77,1.355,7.765,7.765,0,0,0,13.8,1.883,1.118,1.118,0,0,0-.39-1.516,1.163,1.163,0,0,0-1.527.4Z" transform="translate(-8.776 -0.891)"/><path d="M98.676,153.123a36.2,36.2,0,0,0-6.832-1.022,55.606,55.606,0,0,0-16.694,1.378c-1.389.322-.8,2.457.586,2.124a53.868,53.868,0,0,1,16.1-1.3,37.6,37.6,0,0,1,4.512.562,17.625,17.625,0,0,1,1.734.379,1.1,1.1,0,0,0,.6-2.124Z" transform="translate(-8.776 -0.891)"/><path d="M101.19,160.839a25.615,25.615,0,0,0-5.706-.092,22.135,22.135,0,0,0-10.827,3.594,1.117,1.117,0,0,0-.391,1.515,1.106,1.106,0,0,0,1.516.391,20.089,20.089,0,0,1,9.851-3.307,27.166,27.166,0,0,1,3.743-.057c.368.023.735.046,1.1.08.161.011.712.092.138.011a1.131,1.131,0,0,0,1.355-.769,1.115,1.115,0,0,0-.781-1.366Z" transform="translate(-8.776 -0.891)"/><path d="M174.707,157.578a33.916,33.916,0,0,1,6.475-.023,53.45,53.45,0,0,1,15.638,3.617,55.9,55.9,0,0,1,5.638,2.606c1.251.666,2.376-1.24,1.113-1.906a56.857,56.857,0,0,0-17.647-5.97,46.465,46.465,0,0,0-10.4-.609c-.276.023-.551.035-.815.069a1.126,1.126,0,0,0-1.1,1.1,1.1,1.1,0,0,0,1.1,1.114Z" transform="translate(-8.776 -0.891)"/><path d="M171.079,164.834a16.77,16.77,0,0,1,1.687.115c.127.012.264.023.391.046.08.012.562.069.206.023.345.046.7.1,1.045.161.781.138,1.55.3,2.308.5a18.553,18.553,0,0,1,9.863,5.856,13.94,13.94,0,0,1,1.825,2.95,1.11,1.11,0,0,0,1.516.391,1.124,1.124,0,0,0,.39-1.516c-3.306-6.958-11.114-10.207-18.428-10.712-.275-.023-.539-.034-.815-.034a1.108,1.108,0,0,0,.012,2.215Z" transform="translate(-8.776 -0.891)"/><path d="M95.438,133.582q1.911-5.874,3.915-11.712c2.584-7.589,5.236-15.167,8.118-22.653.666-1.733,1.343-3.456,2.055-5.178.161-.379.31-.758.471-1.137.034-.091.08-.183.114-.275-.287.677-.137.31-.068.161.091-.207.172-.414.264-.62.3-.689.608-1.39.918-2.067.505-1.114,1.045-2.228,1.642-3.3.115-.207.23-.4.344-.6l.173-.276c-.448.632-.345.436-.219.3s.425-.333-.287.2c.345-.264-.39.138-.287.1.322-.1-.746.035-.344.058-.827-.046-.574-.115-.333-.023-.815-.3-.436-.2-.23-.058s-.562-.471-.218-.149c.081.08.161.161.23.241.138.149.459.586-.069-.1l.241.344a14.089,14.089,0,0,1,.965,1.711c.172.333.321.677.482,1.022.08.183.16.356.241.539.069.15.218.517-.069-.16.034.092.08.183.115.275.31.747.6,1.5.872,2.262.7,1.895,1.332,3.823,1.895,5.764a2.211,2.211,0,0,0,4.26-1.183c-.6-2.066-1.275-4.122-2.033-6.142A44.329,44.329,0,0,0,116.5,86a8.276,8.276,0,0,0-2.7-3.376,3.1,3.1,0,0,0-2.985-.1,3.767,3.767,0,0,0-1.516,1.6c-.585.987-1.091,2.032-1.584,3.077-1.481,3.158-2.79,6.407-4.053,9.668-2.917,7.5-5.58,15.1-8.187,22.71q-2.187,6.39-4.282,12.8c0,.012-.012.035-.012.046a2.233,2.233,0,0,0,1.539,2.721,2.282,2.282,0,0,0,2.721-1.561Z" transform="translate(-8.776 -0.891)"/><path d="M168.9,112.662c4.6-2.882,9.369-5.534,14.18-8.048q3.066-1.6,6.2-3.089c1.056-.505,2.124-.987,3.2-1.47.517-.229,1.022-.447,1.539-.665.126-.046.585-.242-.012.011.127-.057.253-.1.379-.161.3-.126.6-.241.9-.367,2.032-.815,4.087-1.573,6.177-2.2.953-.287,1.906-.539,2.87-.769.437-.1.873-.184,1.309-.275.207-.035.425-.081.632-.115.1-.012.206-.035.31-.046.424-.058-.609.069-.287.034.355-.034.516.046-.2-.069l.161.035c.333.1-.643-.31-.333-.138.379.207-.517-.494-.2-.138.207.218-.425-.585-.23-.3a1.2,1.2,0,0,1,.092.172c-.287-.609-.183-.494-.092-.138.012.069.035.138.046.207.058.344-.092-.769-.034-.287a6.139,6.139,0,0,1-.012,1.125c-.023.253-.137,1.1,0,.1-.034.253-.08.506-.126.747-.1.539-.218,1.079-.356,1.607-.321,1.274-.723,2.537-1.137,3.789-.493,1.47-1.033,2.916-1.595,4.351-.3.781-.609,1.55-.93,2.32-.161.379-.31.758-.471,1.136-.081.2-.161.379-.241.575-.058.149-.218.528.057-.15-.057.127-.1.253-.161.379-1.366,3.215-2.813,6.395-4.282,9.564q-3.186,6.837-6.625,13.549c-.161.321-.322.643-.494.953a2.241,2.241,0,0,0,.792,3.019,2.217,2.217,0,0,0,3.02-.792c1.607-3.089,3.146-6.212,4.662-9.346,3.031-6.258,5.947-12.584,8.53-19.037a82.107,82.107,0,0,0,2.928-8.381,14.356,14.356,0,0,0,.712-6.522,3.431,3.431,0,0,0-1.722-2.388c-1.527-.689-3.112-.229-4.673.115a68.564,68.564,0,0,0-12.619,4.432,191.342,191.342,0,0,0-21.447,11.229c-.884.528-1.768,1.056-2.641,1.607a2.234,2.234,0,0,0-.792,3.02,2.2,2.2,0,0,0,3.008.815Z" transform="translate(-8.776 -0.891)"/><path d="M196.269,101.479A163.586,163.586,0,0,0,178.817,110a32.193,32.193,0,0,0-5.3,3.606c-1.068.953.5,2.5,1.561,1.561.115-.1.241-.206.368-.31.057-.046.447-.356.252-.206.322-.253.666-.494,1-.724.746-.516,1.527-1,2.308-1.469,1.814-1.091,3.685-2.09,5.58-3.055,3.433-1.756,6.923-3.4,10.448-4.971.781-.345,1.573-.7,2.365-1.033a1.114,1.114,0,0,0,.391-1.516,1.13,1.13,0,0,0-1.516-.4Z" transform="translate(-8.776 -0.891)"/><path d="M108.986,101.1c.207,1.929.368,3.858.5,5.787.1,1.5.184,3.008.207,4.512q.018.93-.034,1.86c-.012.138-.023.276-.035.4-.011.08-.057.5-.011.138a3.279,3.279,0,0,1-.115.562,1.1,1.1,0,0,0,2.124.586,11.261,11.261,0,0,0,.264-3.226c0-1.527-.092-3.066-.2-4.593-.138-2.009-.3-4.018-.517-6.028a1.133,1.133,0,0,0-1.1-1.1,1.093,1.093,0,0,0-1.091,1.1Z" transform="translate(-8.776 -0.891)"/><circle class="h" cx="102.392" cy="139.132" r="1.94"/><circle class="h" cx="158.192" cy="141.876" r="1.94"/></svg>