<svg xmlns="http://www.w3.org/2000/svg" xmlns:xlink="http://www.w3.org/1999/xlink" viewBox="0 0 217.224 202.923"><defs><style>.a{fill:#f0b90b;}.b{fill:#fffdfa;}.c{fill:none;stroke:#191326;stroke-miterlimit:6.966;stroke-width:5.224px;opacity:0.1;isolation:isolate;}.d{fill:url(#a);stroke:url(#b);}.e{fill:#e39353;}.f{fill:#964c2e;}.g{fill:#cd89a4;}.h{fill:#e7e7e7;}.i,.j{fill:#2a2a2a;}.j{stroke:#000;stroke-miterlimit:10;stroke-width:2px;}.k{fill:#f6ac37;}</style><linearGradient id="a" x1="148.952" y1="-0.423" x2="148.952" y2="153.003" gradientTransform="matrix(1, 0, 0, -1, -8.776, 202)" gradientUnits="userSpaceOnUse"><stop offset="0" stop-color="#7f1800"/><stop offset="0.853"/></linearGradient><linearGradient id="b" x1="71.903" y1="76.29" x2="226" y2="76.29" xlink:href="#a"/></defs><path class="a" d="M8.776,50.5a50.5,50.5,0,1,1,50.5,50.5A50.5,50.5,0,0,1,8.776,50.5Z" transform="translate(-8.776)"/><path class="b" d="M37.784,37.673,59.3,16.16l8.578,8.578L46.362,46.251ZM37.8,63.381,72.179,29l8.579,8.578L46.377,71.959Zm47.239-21.5L50.658,76.262l8.578,8.578,34.38-34.38-8.578-8.578Zm-60.1,8.633,8.578-8.578,8.578,8.578L33.514,59.1Z" transform="translate(-8.776)"/><path class="c" d="M11.388,50.5A47.888,47.888,0,1,1,59.276,98.388,47.888,47.888,0,0,1,11.388,50.5Z" transform="translate(-8.776)"/><ellipse class="d" cx="140.176" cy="125.71" rx="76.549" ry="76.713"/><path class="e" d="M112.889,115.038l-.494-13.883s1.224,11.507.494,13.883a60.042,60.042,0,0,1,12.049-5.683h0s-8.789-28.7-11.225-24.743c-5.342,8.636-18.519,49.216-18.519,49.228A46.788,46.788,0,0,1,112.889,115.038Z" transform="translate(-8.776)"/><path class="e" d="M95.194,133.84l17.695-18.79A46.684,46.684,0,0,0,95.194,133.84Z" transform="translate(-8.776)"/><path class="e" d="M166.518,164.443a18.105,18.105,0,0,1-13.295-26.861,20.37,20.37,0,0,1-6.083-12.26c-.012-.118-.024-.224-.036-.342a20.253,20.253,0,0,1,1.224-9.318,20.575,20.575,0,0,1,7.071-9.272,65.03,65.03,0,0,0-16.789-.141,66.907,66.907,0,0,0-13.661,3.106,59.751,59.751,0,0,0-12.048,5.683l-17.707,18.8A33.061,33.061,0,0,0,91.9,152.4c.047.435.118.87.188,1.306a13.111,13.111,0,0,1,19.861,9.624,13.479,13.479,0,0,1,.094,1.53,8.9,8.9,0,0,1-.4,14.778,50.21,50.21,0,0,0,4.907,2.412,64.1,64.1,0,0,0,61.5-7.448A13.1,13.1,0,0,1,166.518,164.443Z" transform="translate(-8.776)"/><path class="e" d="M112.889,115.038c.73-2.376-.494-13.883-.494-13.883Z" transform="translate(-8.776)"/><path class="f" d="M183.967,110.908c.141.189.27.377.4.577l16.907-8.966S191.179,106.826,183.967,110.908Z" transform="translate(-8.776)"/><path class="f" d="M183.426,135.6a.229.229,0,0,1,.047-.059l-.13-.035C183.367,135.534,183.39,135.57,183.426,135.6Z" transform="translate(-8.776)"/><path class="f" d="M171.519,111.05l13.024,8.836A46.226,46.226,0,0,0,171.519,111.05Z" transform="translate(-8.776)"/><path class="f" d="M178.178,114.756l6.189-3.283c-.13-.188-.271-.388-.4-.576A37.048,37.048,0,0,0,178.178,114.756Z" transform="translate(-8.776)"/><path class="f" d="M154.14,136.558a3.768,3.768,0,0,0-.047-.377,15.878,15.878,0,0,0-.882,1.4c.388.376.8.741,1.224,1.094C154.329,137.97,154.223,137.264,154.14,136.558Z" transform="translate(-8.776)"/><path class="f" d="M166.518,164.443c.353.047.718.082,1.071.118-.436-.447-.871-.9-1.294-1.365C166.353,163.619,166.424,164.043,166.518,164.443Z" transform="translate(-8.776)"/><path class="f" d="M194.65,138.782S218.605,92.1,210.875,93.166c-8.977,1.247-22.79,8.353-31.438,13.213-4.742,2.67-7.93,4.659-7.93,4.659a56.129,56.129,0,0,0-11.5-3.836c-1.518-.329-3.06-.612-4.624-.823a20.443,20.443,0,0,0-8.3,18.59c.011.117.023.223.035.341a20.34,20.34,0,0,0,6.083,12.26,18.116,18.116,0,0,0,13.295,26.873A13.109,13.109,0,0,0,178.025,174.6c.506-.388,1.012-.777,1.494-1.177a44.131,44.131,0,0,0,12.366-15.507,33.029,33.029,0,0,0,2.942-17.814c-.047-.435-.106-.87-.177-1.317Z" transform="translate(-8.776)"/><path class="f" d="M112.042,164.855a13.311,13.311,0,0,0-.094-1.53A13.111,13.111,0,0,0,92.087,153.7a32.992,32.992,0,0,0,6.589,14.966,40.043,40.043,0,0,0,7.33,7.259,47.184,47.184,0,0,0,5.636,3.718,8.91,8.91,0,0,0,.4-14.789Z" transform="translate(-8.776)"/><path class="g" d="M132.6,158.125l-6.2,2.341s2.047,4.542,5.553,4.365a9.631,9.631,0,0,0,6.107-2.376C138.4,162.031,132.6,158.125,132.6,158.125Z" transform="translate(-8.776)"/><ellipse class="h" cx="140.295" cy="156.717" rx="7.201" ry="5.33" transform="translate(-26.344 17.713) rotate(-6.8)"/><ellipse class="h" cx="126.726" cy="155.238" rx="5.33" ry="6.224" transform="translate(-49.879 264.744) rotate(-83.898)"/><path class="g" d="M112.807,114.332l-.529-14.154s-3.989,2.977-7.389,18.437C103.559,124.651,112.807,114.332,112.807,114.332Z" transform="translate(-8.776)"/><path class="g" d="M180.849,113.979s6.7,3.942,12.26,13.484c0,0,12.413-26.72,8.707-25.226C186.273,108.485,180.849,113.979,180.849,113.979Z" transform="translate(-8.776)"/><path class="i" d="M179.3,96.119" transform="translate(-8.776)"/><path d="M179.3,96.448a.341.341,0,0,0,0-.682.341.341,0,0,0,0,.682Z" transform="translate(-8.776)"/><path class="i" d="M179.3,96.119a17,17,0,0,1,.929,3.847,16.72,16.72,0,0,1-.235,5.436" transform="translate(-8.776)"/><path d="M178.966,96.2a16.8,16.8,0,0,1,.683,9.107c-.083.423.565.612.659.176a17.5,17.5,0,0,0-.683-9.459c-.153-.412-.812-.236-.659.176Z" transform="translate(-8.776)"/><path class="j" d="M179.825,105.414l-7.247,4.977s-9.2-4.848-23.32-4.248a147.187,147.187,0,0,0-24.05,2.871l-2.765.647-.717-.223A16.682,16.682,0,0,1,117,99.649a12.48,12.48,0,0,1-.106-2.471l.012-.353a5.444,5.444,0,0,0,9.589-1.518l.153-.577c.894-3.094,2.482-7.93,3.388-10.612l.4-1.283a17.418,17.418,0,0,1,33.121.918l.094.353c.047.165,3.448,12.766,4.848,14.119l.141.188a6.1,6.1,0,0,0,10.648-2.294" transform="translate(-8.776)"/><path class="k" d="M117.6,101.131c2.694,1,6.294,1.035,8.695-.694a7.153,7.153,0,0,0,2.365-2.883c.729-1.612,1.259-3.341,1.847-5.012.918-2.624,1.8-5.259,2.718-7.883.329-.941.659-1.871,1.023-2.789.071-.188.142-.364.224-.553.129-.329-.165.377-.024.059l.106-.247c.142-.318.283-.623.447-.918a4.71,4.71,0,0,1,.4-.647c.212-.294-.27.341-.082.106.047-.07.106-.129.153-.188a13.008,13.008,0,0,1,1.024-1.106c.247-.235.506-.471.764-.694.095-.083.624-.494.2-.165.2-.153.4-.294.611-.435a17.947,17.947,0,0,1,2.789-1.542c.435-.2-.318.13.129-.059.141-.058.283-.1.424-.164.294-.118.588-.212.894-.318a22.229,22.229,0,0,1,2.153-.576,14.246,14.246,0,0,1,4.142-.377l.482.035c.518.047-.341-.058.177.024.306.047.611.106.906.176a12.6,12.6,0,0,1,1.847.577c.459.176-.306-.141.129.059l.389.176c.258.118.5.259.753.388a15.623,15.623,0,0,1,1.517.954c.106.082.212.152.33.235.365.27-.271-.224.07.059l.6.494c.4.341.789.706,1.153,1.082.306.318.612.647.9.977l.388.459c.071.082.282.364-.035-.047l.211.282a14.333,14.333,0,0,1,1.189,1.941c.27.53.529,1.071.765,1.624l.07.165c.059.141.118.282.177.435q.211.511.388,1.024c.918,2.482,1.624,5.024,2.388,7.565a39.425,39.425,0,0,0,2.083,5.813,8.144,8.144,0,0,0,2.588,3.023,9.6,9.6,0,0,0,4.824,1.93c2.812.318,5.46-1.224,7.413-3.106a1.7,1.7,0,0,0,0-2.4,1.725,1.725,0,0,0-2.4,0,9.116,9.116,0,0,1-1.695,1.329,8.089,8.089,0,0,1-.906.471c.318-.141-.153.047-.176.059a5.227,5.227,0,0,1-.565.164c-.141.036-.282.059-.412.083-.459.082.365-.036-.094.011a5.584,5.584,0,0,1-.776.012c-.13,0-.247-.012-.377-.023-.423-.036.388.058-.035-.012-.271-.047-.53-.118-.8-.188a5.705,5.705,0,0,1-.624-.224c.494.2-.141-.082-.259-.141a11.08,11.08,0,0,1-1.023-.624c-.118-.082-.589-.447-.083-.047-.094-.07-.2-.153-.294-.235-.164-.13-.329-.259-.482-.4a3.984,3.984,0,0,1-.306-.33c.388.471.012,0-.082-.129a8.369,8.369,0,0,1-.6-1.118,2.9,2.9,0,0,1-.13-.294c-.165-.365.153.365-.012-.012-.094-.223-.176-.447-.259-.67-.2-.53-.376-1.071-.553-1.612-.8-2.436-1.458-4.907-2.235-7.342a37.666,37.666,0,0,0-3.059-7.354,17.91,17.91,0,0,0-3.118-3.847,18.474,18.474,0,0,0-6.165-3.965,15.539,15.539,0,0,0-8.672-.494,18.933,18.933,0,0,0-10.813,5.788,10.761,10.761,0,0,0-1.764,2.848c-.848,1.953-1.53,3.977-2.212,6-.836,2.448-1.671,4.895-2.53,7.319-.259.741-.53,1.482-.8,2.223-.047.142-.106.283-.153.424,0-.012-.247.623-.071.223a5.616,5.616,0,0,1-.388.742c-.059.094-.459.647-.177.282a5.157,5.157,0,0,1-.494.53c-.059.047-.117.105-.176.152-.306.259.306-.211-.012.012a5.436,5.436,0,0,1-.565.353.968.968,0,0,1-.2.094c-.341.165.365-.141.012,0a3.563,3.563,0,0,1-.506.165c-.165.047-.341.094-.518.13-.1.023-.2.035-.3.058-.377.059.411-.047.035-.011a9.917,9.917,0,0,1-2.13-.036c.612.071.083.012-.059-.011s-.306-.059-.458-.083c-.236-.047-.459-.106-.695-.165-.211-.058-.411-.117-.612-.188a1.7,1.7,0,0,0-2.082,1.189,1.67,1.67,0,0,0,1.165,2.035Z" transform="translate(-8.776)"/><circle class="h" cx="137.081" cy="90.424" r="5.671"/><circle class="h" cx="136.164" cy="94.825" r="2.483"/><circle class="h" cx="137.976" cy="94.836" r="2.483"/><ellipse class="i" cx="143.59" cy="90.449" rx="1.953" ry="1.553" transform="translate(-10.309 178.416) rotate(-63.43)"/><ellipse class="i" cx="148.234" cy="90.457" rx="1.553" ry="1.953" transform="translate(-33.485 74.759) rotate(-26.206)"/><path d="M179.3,97.248a1.13,1.13,0,0,0,0-2.259,1.13,1.13,0,0,0,0,2.259Z" transform="translate(-8.776)"/><path d="M178.2,96.413a15.948,15.948,0,0,1,.682,8.683,1.129,1.129,0,0,0,2.177.6,18.243,18.243,0,0,0-.683-9.883,1.15,1.15,0,0,0-1.388-.788,1.134,1.134,0,0,0-.788,1.388Z" transform="translate(-8.776)"/><path d="M115.772,96.813a18.076,18.076,0,0,0,5.154,13.413c1.023,1.047,2.623-.553,1.6-1.6a15.8,15.8,0,0,1-4.495-11.813c.071-1.459-2.188-1.447-2.259,0Z" transform="translate(-8.776)"/><path d="M115.925,97.389a6.693,6.693,0,0,0,8.177,2.189,6.548,6.548,0,0,0,3-2.836,16.788,16.788,0,0,0,1.07-3.176c.824-2.718,1.706-5.424,2.612-8.119.259-.765.506-1.529.742-2.306a14.44,14.44,0,0,1,1.623-3.283,16.288,16.288,0,0,1,26.32-1.506,16.161,16.161,0,0,1,3.107,6.06c.258.953.517,1.894.788,2.835a70.668,70.668,0,0,0,3.518,10.472,7.375,7.375,0,0,0,5.824,4.047,7.274,7.274,0,0,0,7.683-5.353,1.13,1.13,0,0,0-2.177-.6,4.966,4.966,0,0,1-8.753,1.8c-.071-.082-.13-.165-.2-.235-.153-.165.176.259-.012-.012a5.877,5.877,0,0,1-.388-.706c-.071-.141-.13-.282-.189-.424-.023-.047-.129-.305-.023-.047l-.106-.247q-.247-.6-.459-1.2c-.329-.894-.624-1.8-.918-2.706-.588-1.812-1.129-3.636-1.659-5.471-.259-.918-.517-1.836-.765-2.753a18.939,18.939,0,0,0-3.388-6.695,18.527,18.527,0,0,0-28.485-.635,18.254,18.254,0,0,0-3.659,6.483c-.718,2.294-1.506,4.565-2.236,6.859-.435,1.341-.847,2.694-1.247,4.047a6.506,6.506,0,0,1-1.2,2.66,4.356,4.356,0,0,1-6.636-.271,1.154,1.154,0,0,0-1.553-.4,1.115,1.115,0,0,0-.412,1.529Z" transform="translate(-8.776)"/><path d="M188.238,128.075a34.244,34.244,0,0,1,2.271,4.377c-.2-.471.047.129.07.188.071.188.141.365.212.553.141.365.271.741.4,1.118.282.812.518,1.635.73,2.47.2.777.353,1.554.494,2.342.035.2.07.4.094.6.012.071.094.729.035.2.047.341.083.682.118,1.035a30.476,30.476,0,0,1,.129,3.448,32.959,32.959,0,0,1-.235,3.4c-.024.153-.082.647.012-.059-.024.13-.036.271-.059.4-.035.271-.083.542-.13.8-.1.577-.223,1.153-.364,1.73a32.819,32.819,0,0,1-.953,3.283c-.177.517-.365,1.035-.577,1.541-.059.165-.435,1.035-.141.353l-.388.882a39.013,39.013,0,0,1-3.507,6.083c-.329.471-.67.93-1.011,1.389-.306.411.317-.4,0,0-.095.117-.177.223-.271.341-.212.27-.424.529-.647.788-.788.941-1.612,1.847-2.471,2.73s-1.788,1.753-2.73,2.577c-.459.4-.929.788-1.4,1.176l-.718.577c-.094.07-.517.4-.023.023-.165.13-.329.247-.494.377a56.9,56.9,0,0,1-6.636,4.259c-1.188.647-2.4,1.259-3.624,1.824-.294.141-.6.27-.894.411-.153.071-.306.13-.459.2-.094.048-.624.271-.071.036-.67.282-1.341.541-2.012.8a63.775,63.775,0,0,1-8.153,2.482c-1.424.33-2.859.612-4.307.859-.353.059-.706.118-1.059.165-.176.024-.353.047-.529.082-.6.083.494-.058-.106.012-.765.106-1.541.188-2.318.259a65.754,65.754,0,0,1-8.742.259c-1.412-.047-2.835-.153-4.236-.294-.329-.036-.67-.071-1-.118-.164-.023-.329-.035-.494-.059-.576-.07.518.071-.059-.012-.717-.094-1.423-.211-2.129-.329A58.448,58.448,0,0,1,122,181.7c-1.247-.4-2.482-.847-3.694-1.329-.141-.059-.294-.118-.436-.177-.117-.047-.611-.258-.035-.011-.282-.118-.565-.247-.847-.365q-.918-.406-1.8-.847a48.966,48.966,0,0,1-6.436-3.789c-.483-.329-.953-.682-1.412-1.035-.412-.306.4.317,0,0-.118-.094-.224-.177-.341-.271l-.777-.635c-.918-.765-1.788-1.565-2.635-2.4s-1.624-1.683-2.377-2.577c-.177-.212-.353-.424-.529-.647-.083-.106-.177-.212-.259-.33-.306-.388.317.412.011.024-.364-.471-.706-.965-1.047-1.459-.647-.941-1.235-1.918-1.788-2.918-.259-.482-.506-.965-.753-1.459l-.353-.741c-.059-.13-.106-.247-.165-.377s-.318-.741-.035-.082a31.723,31.723,0,0,1-1.93-6.554c-.047-.27-.094-.541-.141-.823-.023-.142-.047-.271-.059-.412-.07-.506.071.553.012.047q-.106-.9-.176-1.8a33.386,33.386,0,0,1-.048-3.436c.024-.541.059-1.094.106-1.635.024-.271.059-.542.083-.812.011-.13.035-.271.047-.4-.094.741-.012.082.012-.071a29.253,29.253,0,0,1,.694-3.33c.282-1.106.635-2.188,1.023-3.259.094-.259.2-.517.294-.776.059-.165.424-1.036.142-.353.235-.553.482-1.094.753-1.636a39.408,39.408,0,0,1,3.647-6.036c.165-.235.341-.458.518-.694.306-.412-.318.4,0,0,.094-.117.176-.223.27-.341.389-.494.8-.976,1.212-1.459.812-.929,1.659-1.824,2.53-2.694.894-.883,1.824-1.73,2.788-2.53.471-.4.942-.776,1.424-1.153.094-.071.518-.4.024-.024.117-.094.247-.188.364-.282.3-.223.577-.435.871-.647A55.72,55.72,0,0,1,117.49,115c1.2-.635,2.435-1.224,3.671-1.777.153-.07.306-.129.459-.2.094-.047.623-.27.07-.035.306-.13.612-.259.918-.377.671-.27,1.353-.529,2.036-.776a63.864,63.864,0,0,1,8.236-2.365c1.435-.318,2.882-.577,4.341-.788.177-.024.353-.047.53-.083.6-.082-.5.059.106-.012.364-.047.741-.094,1.106-.129.847-.094,1.706-.176,2.553-.235a65.459,65.459,0,0,1,9.6-.024c.741.047,1.494.118,2.235.2.365.036.741.083,1.106.13.094.011.718.094.13.011l.729.106c1.506.224,2.989.506,4.471.836a56.854,56.854,0,0,1,6.8,1.988c.541.2,1.082.4,1.623.612.271.106.53.212.8.329.236.095.212.083-.07-.023.153.07.318.129.471.2,1.082.471,2.153.988,3.2,1.541a47.066,47.066,0,0,1,5.612,3.436c.435.306.871.635,1.294.965-.506-.389.189.153.295.235.211.165.411.341.611.506.847.706,1.671,1.447,2.459,2.224a2.263,2.263,0,1,0,3.2-3.2c-8.507-8.318-19.979-12.813-31.639-14.283a67.8,67.8,0,0,0-36.027,5.518c-9.471,4.259-18.037,11.1-23.5,20.013a35.948,35.948,0,0,0-4.424,27.8c2.506,9.566,9.213,17.414,17.4,22.72,9.212,5.965,20.331,8.754,31.226,8.942a67.148,67.148,0,0,0,33.733-8.342c8.824-4.942,16.672-12.354,20.955-21.626a36.719,36.719,0,0,0,3.435-14.083,34.519,34.519,0,0,0-4.353-17.778c-.259-.459-.529-.918-.8-1.365a2.236,2.236,0,1,0-3.859,2.259Z" transform="translate(-8.776)"/><circle cx="157.425" cy="146.865" r="8.401"/><circle cx="101.349" cy="143.806" r="7.648"/><path d="M131.856,157.431a9.064,9.064,0,0,0,6.3,5.612c1.412.341,2.023-1.836.6-2.177a6.679,6.679,0,0,1-4.707-4.036,1.151,1.151,0,0,0-1.388-.788,1.119,1.119,0,0,0-.8,1.389Z" transform="translate(-8.776)"/><path d="M145.81,157.925a6.691,6.691,0,0,1-7.059,2.929c-1.424-.306-2.024,1.871-.6,2.177a9.012,9.012,0,0,0,9.612-3.977c.777-1.223-1.176-2.353-1.953-1.129Z" transform="translate(-8.776)"/><path d="M126.373,160.278a7.145,7.145,0,0,0,1.588,0,6.849,6.849,0,0,0,4.977-3.153s.8-2.848-3.282-5.9c0,0-1.483-2.589,3.659-2.447,5.4.141,5.93,3.471,3.647,3.706-3.988.412-4.024,4.647-4.024,4.647" transform="translate(-8.776)"/><path d="M126.373,161.419a7.872,7.872,0,0,0,7.177-3.188,2.19,2.19,0,0,0,.518-1.012c.4-2.906-1.671-5.318-3.836-6.966l.4.4c-.141-.235.094.259.024.071a.974.974,0,0,1-.059-.2c-.094-.341,0,.212-.012-.035v-.142c.012-.2-.059.306-.012.106.059-.329-.105.165.024-.07.035-.071.177-.224-.035.035a1.562,1.562,0,0,1,.141-.141c.176-.165-.212.153,0,0,.094-.059.2-.106.294-.153-.247.118.059-.012.094-.024.106-.035.224-.058.33-.082a4.19,4.19,0,0,1,.647-.094,11.742,11.742,0,0,1,2.318.047,7.091,7.091,0,0,1,1.541.388,3.9,3.9,0,0,1,.459.224,1.964,1.964,0,0,1,.259.165c.164.105-.083-.083.141.117l.176.177c.189.2-.129-.2.012.011a.961.961,0,0,1,.106.189c.118.211-.082-.247-.012-.024a.892.892,0,0,1,.047.177c-.07-.33-.023-.165-.023-.059,0,.223.059-.294.012-.071-.059.283.094-.176.011-.012-.117.224.177-.152-.082.083.247-.212.106-.083.023-.035-.2.117.259-.095.024-.012a1.525,1.525,0,0,1-.212.059c-.282.07.4-.047-.082.011a5.982,5.982,0,0,0-1.13.224,5.531,5.531,0,0,0-3.694,4.2,5.753,5.753,0,0,0-.177,1.342,1.13,1.13,0,0,0,2.259,0c0-.094.012-.177.012-.271,0-.047.012-.094.012-.141.023-.212-.047.306-.012.07.024-.164.059-.317.094-.47s.083-.318.13-.471c.023-.082.059-.165.082-.247.106-.282-.106.212.024-.071.082-.176.176-.341.27-.517a2.793,2.793,0,0,1,.165-.247c.082-.106.082-.106.012-.012a1.774,1.774,0,0,1,.141-.153,2.609,2.609,0,0,1,.941-.706,6.056,6.056,0,0,1,1.459-.341,2.365,2.365,0,0,0,1.824-1.518c.741-1.894-1.353-3.353-2.836-3.894a10.9,10.9,0,0,0-4.177-.483,5.316,5.316,0,0,0-3.082.988,2.412,2.412,0,0,0-.671,2.648,2.729,2.729,0,0,0,1.059,1.259,7.509,7.509,0,0,1,1.953,2.388,1.248,1.248,0,0,1,.153.377,3.61,3.61,0,0,1,.141.482c.024.071.094.553.059.212.012.118.024.247.024.365,0,.141-.059.764.011.258-.023.165-.1.189-.011.048a5.782,5.782,0,0,1-5.507,2.459,1.136,1.136,0,0,0-1.129,1.129,1.262,1.262,0,0,0,1.188,1.153Z" transform="translate(-8.776)"/><path d="M126.373,159.148a5.725,5.725,0,0,1-4.483-3.471,1.151,1.151,0,0,0-1.388-.788,1.131,1.131,0,0,0-.788,1.388,8.112,8.112,0,0,0,6.671,5.13c.612.083,1.129-.576,1.129-1.129a1.18,1.18,0,0,0-1.141-1.13Z" transform="translate(-8.776)"/><path d="M137.468,161.372a5.694,5.694,0,0,1-10-1.388,1.15,1.15,0,0,0-1.388-.789,1.126,1.126,0,0,0-.788,1.389,7.956,7.956,0,0,0,14.142,1.929,1.146,1.146,0,0,0-.4-1.553,1.192,1.192,0,0,0-1.565.412Z" transform="translate(-8.776)"/><path d="M100.7,154.466a36.993,36.993,0,0,0-7-1.048,56.974,56.974,0,0,0-17.107,1.412c-1.424.33-.824,2.518.6,2.177a55.174,55.174,0,0,1,16.5-1.33,38.6,38.6,0,0,1,4.624.577,17.84,17.84,0,0,1,1.776.388,1.131,1.131,0,0,0,.612-2.176Z" transform="translate(-8.776)"/><path d="M103.277,162.372a26.287,26.287,0,0,0-5.848-.094,22.68,22.68,0,0,0-11.095,3.683,1.146,1.146,0,0,0-.4,1.553,1.132,1.132,0,0,0,1.553.4,20.586,20.586,0,0,1,10.095-3.389,27.726,27.726,0,0,1,3.836-.058c.376.023.753.047,1.129.082.165.012.73.094.141.012a1.161,1.161,0,0,0,1.389-.789,1.143,1.143,0,0,0-.8-1.4Z" transform="translate(-8.776)"/><path d="M178.613,159.031a34.7,34.7,0,0,1,6.636-.024,54.746,54.746,0,0,1,16.025,3.706,57.156,57.156,0,0,1,5.777,2.671c1.283.683,2.436-1.27,1.142-1.953a58.3,58.3,0,0,0-18.084-6.118,47.582,47.582,0,0,0-10.66-.624c-.283.024-.565.036-.836.071a1.153,1.153,0,0,0-1.129,1.129,1.126,1.126,0,0,0,1.129,1.142Z" transform="translate(-8.776)"/><path d="M174.9,166.467a17.33,17.33,0,0,1,1.73.117c.129.012.271.024.4.047.082.012.577.071.212.024.353.047.718.106,1.07.165.8.141,1.589.306,2.365.517a19.008,19.008,0,0,1,10.107,6,14.307,14.307,0,0,1,1.871,3.024,1.137,1.137,0,0,0,1.553.4,1.15,1.15,0,0,0,.4-1.553c-3.388-7.13-11.389-10.46-18.884-10.978-.282-.023-.553-.035-.835-.035a1.136,1.136,0,0,0,.011,2.271Z" transform="translate(-8.776)"/><path d="M97.382,134.44q1.959-6.018,4.012-12c2.648-7.777,5.365-15.543,8.319-23.214.682-1.777,1.376-3.542,2.106-5.306.164-.389.317-.777.482-1.165.035-.094.083-.189.118-.283-.294.695-.141.318-.071.165.094-.212.177-.423.271-.635.306-.706.623-1.424.941-2.118.518-1.141,1.071-2.283,1.683-3.377.117-.212.235-.412.353-.612l.176-.282c-.459.647-.353.447-.223.306s.435-.341-.3.2c.353-.271-.4.141-.294.106.33-.106-.765.035-.353.059-.847-.048-.588-.118-.341-.024-.835-.306-.447-.2-.235-.059s-.577-.482-.224-.153c.083.083.165.165.235.247.142.153.471.6-.07-.106l.247.353a14.3,14.3,0,0,1,.988,1.753c.177.342.33.7.494,1.048.083.188.165.364.248.553.07.153.223.529-.071-.165.035.094.082.188.118.282.317.765.611,1.542.894,2.318.718,1.942,1.365,3.918,1.941,5.907a2.265,2.265,0,0,0,4.365-1.212c-.612-2.118-1.306-4.224-2.082-6.3a45.69,45.69,0,0,0-2.153-5.048,8.493,8.493,0,0,0-2.765-3.459,3.178,3.178,0,0,0-3.059-.106,3.859,3.859,0,0,0-1.554,1.636c-.6,1.012-1.117,2.082-1.623,3.153-1.518,3.236-2.859,6.565-4.154,9.907-2.988,7.683-5.718,15.472-8.389,23.273q-2.241,6.547-4.388,13.119c0,.011-.012.035-.012.047a2.287,2.287,0,0,0,1.577,2.788,2.337,2.337,0,0,0,2.788-1.6Z" transform="translate(-8.776)"/><path d="M172.66,113c4.718-2.953,9.6-5.671,14.531-8.248q3.141-1.641,6.353-3.165c1.083-.518,2.177-1.012,3.283-1.506.529-.235,1.047-.459,1.577-.683.129-.047.6-.247-.012.012.129-.059.259-.106.388-.165.306-.129.612-.247.918-.376,2.082-.835,4.188-1.612,6.33-2.259.976-.294,1.953-.553,2.941-.788.447-.106.894-.189,1.342-.283.211-.035.435-.082.647-.117.106-.012.211-.036.317-.047.436-.059-.623.07-.294.035.365-.035.53.047-.2-.071l.165.036c.341.105-.659-.318-.341-.142.388.212-.53-.506-.2-.141.212.224-.436-.6-.236-.306a1.274,1.274,0,0,1,.095.177c-.3-.624-.189-.506-.095-.141.012.07.036.141.047.211.059.353-.094-.788-.035-.294a6.265,6.265,0,0,1-.012,1.153c-.023.259-.141,1.13,0,.106-.035.259-.082.518-.129.765-.106.553-.224,1.106-.365,1.647-.329,1.306-.741,2.6-1.165,3.883-.506,1.506-1.059,2.988-1.635,4.459-.306.8-.624,1.588-.953,2.377-.165.388-.318.776-.482,1.165-.083.2-.165.388-.248.588-.058.153-.223.541.059-.153-.059.129-.106.259-.164.388-1.4,3.3-2.883,6.554-4.389,9.8q-3.266,7.006-6.789,13.884c-.165.329-.329.659-.506.976a2.3,2.3,0,0,0,.812,3.095,2.272,2.272,0,0,0,3.094-.812c1.648-3.165,3.224-6.365,4.777-9.577,3.106-6.413,6.095-12.9,8.742-19.508a84.321,84.321,0,0,0,3-8.589,14.711,14.711,0,0,0,.729-6.683,3.512,3.512,0,0,0-1.765-2.448c-1.565-.7-3.188-.235-4.789.118a70.306,70.306,0,0,0-12.93,4.542A196.06,196.06,0,0,0,173.1,107.426c-.906.541-1.812,1.082-2.706,1.647a2.289,2.289,0,0,0-.812,3.094,2.257,2.257,0,0,0,3.083.836Z" transform="translate(-8.776)"/><path d="M200.71,101.543a167.407,167.407,0,0,0-17.884,8.73,32.892,32.892,0,0,0-5.436,3.7c-1.094.976.517,2.564,1.6,1.6.118-.106.247-.212.376-.318.059-.047.459-.365.259-.212.33-.259.683-.506,1.024-.741.765-.529,1.565-1.024,2.365-1.506,1.859-1.118,3.777-2.141,5.718-3.13,3.518-1.8,7.095-3.482,10.707-5.094.8-.353,1.612-.718,2.424-1.059a1.141,1.141,0,0,0,.4-1.553,1.157,1.157,0,0,0-1.553-.412Z" transform="translate(-8.776)"/><path d="M111.266,101.155c.212,1.976.376,3.953.517,5.93.106,1.541.189,3.082.212,4.623q.018.954-.035,1.907l-.035.411c-.012.083-.059.518-.012.142a3.367,3.367,0,0,1-.118.576,1.13,1.13,0,0,0,2.177.6,11.564,11.564,0,0,0,.271-3.306c0-1.565-.095-3.142-.2-4.706-.141-2.059-.305-4.118-.529-6.177a1.162,1.162,0,0,0-1.129-1.13,1.12,1.12,0,0,0-1.118,1.13Z" transform="translate(-8.776)"/><circle class="h" cx="104.725" cy="141.041" r="1.988"/><circle class="h" cx="161.907" cy="143.853" r="1.988"/></svg>